# xmcd
#
# Track frame offsets:
# 150
# 13695
# 28035
# 41465
# 55522
# 68487
# 82690
# 96530
# 110637
# 126260
# 140347
# 154237
# 168500
# 182712
# 197317
# 211377
# 224990
# 239075
#
# Disc length: 3369 seconds
#
#
# Revision: 0
# Processed by: cddbd v1.5.2PL0 Copyright (c) Steve Scherf et al.
# Submitted via: FreeRIP 2.945 
#
DISCID=010d2712
DTITLE=Charley Patton - Screamin' and Hollerin' the Blues Disc 1
DYEAR=1929
DGENRE=Blues
TTITLE0=Pony Blues
TTITLE1=A Spoonful Blues
TTITLE2=Down the Dirt Road Blues
TTITLE3=Prayer of Death Pt. 1
TTITLE4=Prayer of Death Pt. 2
TTITLE5=Screamin' and Hollerin' the Blues
TTITLE6=Banty Rooster Blues
TTITLE7=Tom Rushen Blues
TTITLE8=It Won't Be Long
TTITLE9=Shake It and Break It
TTITLE10=Pea Vine Blues
TTITLE11=Mississippi Boweavil Blues
TTITLE12=Lord I'm Discouraged
TTITLE13=I'm Goin Home
TTITLE14=Walter Hawkins - Snatch It and Grab It
TTITLE15=Walter Hawkins - A Rag Blues
TTITLE16=Walter Hawkins - How Come Mama Blues
TTITLE17=Walter Hawkins - Voice Throwin' Blues
EXTD=
EXTT0=
EXTT1=
EXTT2=
EXTT3=
EXTT4=
EXTT5=
EXTT6=
EXTT7=
EXTT8=
EXTT9=
EXTT10=
EXTT11=
EXTT12=
EXTT13=
EXTT14=
EXTT15=
EXTT16=
EXTT17=
PLAYORDER=
